<mxfile host="app.diagrams.net" agent="Mozilla/5.0 (Windows NT 10.0; Win64; x64) AppleWebKit/537.36 (KHTML, like Gecko) Chrome/127.0.0.0 Safari/537.36 Edg/127.0.0.0" version="24.7.6">
  <diagram name="第 1 页" id="_kHgMUECZjhu3AblrjZq">
    <mxGraphModel dx="983" dy="522" grid="1" gridSize="10" guides="1" tooltips="1" connect="1" arrows="1" fold="1" page="1" pageScale="1" pageWidth="1654" pageHeight="1169" math="0" shadow="0">
      <root>
        <mxCell id="0" />
        <mxCell id="1" parent="0" />
        <mxCell id="vKMjjgz8gRg4zgODhVKj-2" style="edgeStyle=orthogonalEdgeStyle;rounded=0;orthogonalLoop=1;jettySize=auto;html=1;exitX=0;exitY=0.25;exitDx=0;exitDy=0;entryX=0;entryY=0.25;entryDx=0;entryDy=0;" edge="1" parent="1" target="vKMjjgz8gRg4zgODhVKj-1">
          <mxGeometry relative="1" as="geometry">
            <mxPoint x="560" y="280.0689655172414" as="sourcePoint" />
          </mxGeometry>
        </mxCell>
        <mxCell id="vKMjjgz8gRg4zgODhVKj-5" value="sys_clk" style="edgeLabel;html=1;align=center;verticalAlign=middle;resizable=0;points=[];" vertex="1" connectable="0" parent="vKMjjgz8gRg4zgODhVKj-2">
          <mxGeometry x="0.2926" y="1" relative="1" as="geometry">
            <mxPoint x="-13" y="-9" as="offset" />
          </mxGeometry>
        </mxCell>
        <mxCell id="vKMjjgz8gRg4zgODhVKj-3" style="edgeStyle=orthogonalEdgeStyle;rounded=0;orthogonalLoop=1;jettySize=auto;html=1;exitX=0;exitY=0.5;exitDx=0;exitDy=0;entryX=0;entryY=0.5;entryDx=0;entryDy=0;" edge="1" parent="1" target="vKMjjgz8gRg4zgODhVKj-1">
          <mxGeometry relative="1" as="geometry">
            <mxPoint x="560" y="320.0689655172414" as="sourcePoint" />
          </mxGeometry>
        </mxCell>
        <mxCell id="vKMjjgz8gRg4zgODhVKj-6" value="key" style="edgeLabel;html=1;align=center;verticalAlign=middle;resizable=0;points=[];" vertex="1" connectable="0" parent="vKMjjgz8gRg4zgODhVKj-3">
          <mxGeometry x="0.0873" y="-2" relative="1" as="geometry">
            <mxPoint x="-3" y="-12" as="offset" />
          </mxGeometry>
        </mxCell>
        <mxCell id="vKMjjgz8gRg4zgODhVKj-4" style="edgeStyle=orthogonalEdgeStyle;rounded=0;orthogonalLoop=1;jettySize=auto;html=1;exitX=0;exitY=0.75;exitDx=0;exitDy=0;entryX=0;entryY=0.75;entryDx=0;entryDy=0;" edge="1" parent="1" target="vKMjjgz8gRg4zgODhVKj-1">
          <mxGeometry relative="1" as="geometry">
            <mxPoint x="560" y="360.0689655172414" as="sourcePoint" />
          </mxGeometry>
        </mxCell>
        <mxCell id="vKMjjgz8gRg4zgODhVKj-7" value="sys_rst_n" style="edgeLabel;html=1;align=center;verticalAlign=middle;resizable=0;points=[];" vertex="1" connectable="0" parent="vKMjjgz8gRg4zgODhVKj-4">
          <mxGeometry x="0.1215" relative="1" as="geometry">
            <mxPoint x="-6" y="-10" as="offset" />
          </mxGeometry>
        </mxCell>
        <mxCell id="vKMjjgz8gRg4zgODhVKj-8" style="edgeStyle=orthogonalEdgeStyle;rounded=0;orthogonalLoop=1;jettySize=auto;html=1;exitX=1;exitY=0.25;exitDx=0;exitDy=0;" edge="1" parent="1" source="vKMjjgz8gRg4zgODhVKj-1">
          <mxGeometry relative="1" as="geometry">
            <mxPoint x="840" y="280.0689655172414" as="targetPoint" />
          </mxGeometry>
        </mxCell>
        <mxCell id="vKMjjgz8gRg4zgODhVKj-9" value="sck" style="edgeLabel;html=1;align=center;verticalAlign=middle;resizable=0;points=[];" vertex="1" connectable="0" parent="vKMjjgz8gRg4zgODhVKj-8">
          <mxGeometry x="0.0529" relative="1" as="geometry">
            <mxPoint x="-3" y="-11" as="offset" />
          </mxGeometry>
        </mxCell>
        <mxCell id="vKMjjgz8gRg4zgODhVKj-10" style="edgeStyle=orthogonalEdgeStyle;rounded=0;orthogonalLoop=1;jettySize=auto;html=1;exitX=1;exitY=0.5;exitDx=0;exitDy=0;" edge="1" parent="1" source="vKMjjgz8gRg4zgODhVKj-1">
          <mxGeometry relative="1" as="geometry">
            <mxPoint x="840" y="320.0689655172414" as="targetPoint" />
          </mxGeometry>
        </mxCell>
        <mxCell id="vKMjjgz8gRg4zgODhVKj-11" value="cs_n" style="edgeLabel;html=1;align=center;verticalAlign=middle;resizable=0;points=[];" vertex="1" connectable="0" parent="vKMjjgz8gRg4zgODhVKj-10">
          <mxGeometry x="0.1727" relative="1" as="geometry">
            <mxPoint x="-10" y="-11" as="offset" />
          </mxGeometry>
        </mxCell>
        <mxCell id="vKMjjgz8gRg4zgODhVKj-12" style="edgeStyle=orthogonalEdgeStyle;rounded=0;orthogonalLoop=1;jettySize=auto;html=1;exitX=1;exitY=0.75;exitDx=0;exitDy=0;" edge="1" parent="1" source="vKMjjgz8gRg4zgODhVKj-1">
          <mxGeometry relative="1" as="geometry">
            <mxPoint x="840" y="360.0689655172414" as="targetPoint" />
          </mxGeometry>
        </mxCell>
        <mxCell id="vKMjjgz8gRg4zgODhVKj-13" value="mosi" style="edgeLabel;html=1;align=center;verticalAlign=middle;resizable=0;points=[];" vertex="1" connectable="0" parent="vKMjjgz8gRg4zgODhVKj-12">
          <mxGeometry x="0.2584" relative="1" as="geometry">
            <mxPoint x="-11" y="-11" as="offset" />
          </mxGeometry>
        </mxCell>
        <mxCell id="vKMjjgz8gRg4zgODhVKj-1" value="flash_be_ctrl" style="rounded=0;whiteSpace=wrap;html=1;" vertex="1" parent="1">
          <mxGeometry x="640" y="240" width="120" height="160" as="geometry" />
        </mxCell>
      </root>
    </mxGraphModel>
  </diagram>
</mxfile>
